<svg xmlns="http://www.w3.org/2000/svg" viewBox="0 0 512 512" width="512" height="512">
  <defs>
    <linearGradient id="bg" x1="0" y1="0" x2="0" y2="1">
      <stop offset="0" stop-color="#ffb347"/>
      <stop offset="1" stop-color="#e8781a"/>
    </linearGradient>
  </defs>
  <rect width="512" height="512" fill="url(#bg)"/>
  <g transform="translate(256 262) scale(0.74) translate(-256 -268)"><g id="mark">
    <!-- exhaust stack -->
    <rect x="322" y="118" width="40" height="96" rx="10" fill="#16181a"/>
    <rect x="314" y="110" width="56" height="22" rx="8" fill="#16181a"/>
    <!-- body -->
    <rect x="124" y="190" width="264" height="176" rx="30" fill="#16181a"/>
    <!-- grinning intake jaw -->
    <rect x="164" y="296" width="184" height="46" rx="12" fill="#ffb347"/>
    <path d="M176 296 L196 318 L216 296 L236 318 L256 296 L276 318 L296 296 L316 318 L336 296 Z" fill="#16181a"/>
    <!-- tracks -->
    <rect x="100" y="356" width="312" height="72" rx="36" fill="#16181a"/>
    <circle cx="144" cy="392" r="18" fill="#e8781a"/>
    <circle cx="208" cy="392" r="14" fill="#e8781a"/>
    <circle cx="256" cy="392" r="14" fill="#e8781a"/>
    <circle cx="304" cy="392" r="14" fill="#e8781a"/>
    <circle cx="368" cy="392" r="18" fill="#e8781a"/>
    <!-- googly eyes -->
    <circle cx="198" cy="222" r="58" fill="#16181a"/>
    <circle cx="318" cy="216" r="50" fill="#16181a"/>
    <circle cx="198" cy="222" r="46" fill="#ffffff"/>
    <circle cx="318" cy="216" r="38" fill="#ffffff"/>
    <circle cx="214" cy="240" r="21" fill="#16181a"/>
    <circle cx="302" cy="200" r="18" fill="#16181a"/>
    <circle cx="208" cy="234" r="6" fill="#ffffff"/>
    <circle cx="297" cy="195" r="5" fill="#ffffff"/>
  </g></g>
</svg>
